<svg height="320" version="1.1" width="320" xmlns="http://www.w3.org/2000/svg" xmlns:xlink="http://www.w3.org/1999/xlink" style="overflow: hidden; position: relative; top: -0.799988px;" viewBox="0 0 320 320" preserveAspectRatio="xMidYMid meet" id="main_svg"><svg height="320" version="1.1" width="320" xmlns="http://www.w3.org/2000/svg" xmlns:xlink="http://www.w3.org/1999/xlink" style="overflow: hidden; position: relative;" viewBox="0 0 16 16" preserveAspectRatio="xMidYMid meet" id="imported_svg_layer_1"><path style="opacity: 1; fill-opacity: 1;" fill="url(#gradient_yat97amq94zg3g2y5hw1b)" stroke="none" d="M8,0A0.5,0.5,0,0,0,7.5,0.5A0.5,0.5,0,0,0,8,1A0.5,0.5,0,0,0,8.5,0.5A0.5,0.5,0,0,0,8,0ZM4.2382812,1.0058594A0.5,0.5,0,0,0,4,1.0722656A0.5,0.5,0,0,0,3.8164062,1.7558594A0.5,0.5,0,0,0,4.5,1.9375A0.5,0.5,0,0,0,4.6835938,1.2558594A0.5,0.5,0,0,0,4.238281199999999,1.0058594ZM11.726562000000001,1.0058594A0.5,0.5,0,0,0,11.316406,1.2558594A0.5,0.5,0,0,0,11.5,1.9375A0.5,0.5,0,0,0,12.183594,1.7558594A0.5,0.5,0,0,0,12,1.0722656A0.5,0.5,0,0,0,11.726562,1.0058594ZM1.4804688,3.75A0.5,0.5,0,0,0,1.0722656,4A0.5,0.5,0,0,0,1.2558594,4.6835938A0.5,0.5,0,0,0,1.9375,4.5A0.5,0.5,0,0,0,1.7558594,3.8164062A0.5,0.5,0,0,0,1.4804688,3.75ZM14.482422000000001,3.75A0.5,0.5,0,0,0,14.244141,3.8164062A0.5,0.5,0,0,0,14.0625,4.5A0.5,0.5,0,0,0,14.744141,4.6835938A0.5,0.5,0,0,0,14.927734,4A0.5,0.5,0,0,0,14.482422,3.75ZM0.5,7.5A0.5,0.5,0,0,0,0,8A0.5,0.5,0,0,0,0.5,8.5A0.5,0.5,0,0,0,1,8A0.5,0.5,0,0,0,0.5,7.5ZM15.5,7.5A0.5,0.5,0,0,0,15,8A0.5,0.5,0,0,0,15.5,8.5A0.5,0.5,0,0,0,16,8A0.5,0.5,0,0,0,15.5,7.5ZM1.4941406,11.25A0.5,0.5,0,0,0,1.2558594,11.316406A0.5,0.5,0,0,0,1.0722656,12A0.5,0.5,0,0,0,1.7558594,12.183594A0.5,0.5,0,0,0,1.9375,11.5A0.5,0.5,0,0,0,1.4941406,11.25ZM14.470703,11.25A0.5,0.5,0,0,0,14.0625,11.5A0.5,0.5,0,0,0,14.244141,12.183594A0.5,0.5,0,0,0,14.927734,12A0.5,0.5,0,0,0,14.744141,11.316406A0.5,0.5,0,0,0,14.470703,11.25ZM4.2265625,13.996094A0.5,0.5,0,0,0,3.8164062,14.244141A0.5,0.5,0,0,0,4,14.927734A0.5,0.5,0,0,0,4.6835938,14.744141A0.5,0.5,0,0,0,4.5,14.0625A0.5,0.5,0,0,0,4.2265625,13.996094ZM11.738281,13.996094A0.5,0.5,0,0,0,11.5,14.0625A0.5,0.5,0,0,0,11.316406,14.744141A0.5,0.5,0,0,0,12,14.927734A0.5,0.5,0,0,0,12.183594,14.244141A0.5,0.5,0,0,0,11.738281,13.996094ZM8,15A0.5,0.5,0,0,0,7.5,15.5A0.5,0.5,0,0,0,8,16A0.5,0.5,0,0,0,8.5,15.5A0.5,0.5,0,0,0,8,15Z" stroke-width="0" opacity="1" fill-opacity="1" transform="matrix(1,0,0,1,0,0)"></path><desc>Created with Logotizer</desc><defs><linearGradient id="gradient_yat97amq94zg3g2y5hw1b" x1="1.8369701987210297e-16" y1="0" x2="0" y2="1"><stop offset="0%" stop-color="#b100ff" stop-opacity="1"></stop><stop offset="100%" stop-color="#00ffe1" stop-opacity="1"></stop></linearGradient></defs></svg><svg height="320" version="1.1" width="320" xmlns="http://www.w3.org/2000/svg" xmlns:xlink="http://www.w3.org/1999/xlink" style="overflow: hidden; position: relative;" viewBox="0 0 160 160" preserveAspectRatio="xMidYMid meet" id="imported_svg_layer_2"><desc>Created with Logotizer</desc><defs></defs><path style="cursor: move; display: none;" fill="#ffffff" stroke="#d5d5d5" d="M119.4201,90H158.77575000000002C158.79687,89.83075,158.82012,89.66223,158.8402,89.49261L79.4201,20L0,89.4926C0.0201,89.66223,0.04333,89.83075,0.06445,90H39.4201V149.27080999999998A79.92753,79.92753,0,0,0,119.42009999999999,149.27080999999998V90Z" stroke-width="2" transform="matrix(1,0,0,1,0,0)"></path></svg><desc>Created with Logotizer</desc><defs><linearGradient id="gradient_t0jrmr5g6ljfvi1sy58spg" x1="1.8369701987210297e-16" y1="0" x2="0" y2="1"><stop offset="0%" stop-color="#9900ff" stop-opacity="1"></stop><stop offset="100%" stop-color="#00fff6" stop-opacity="1"></stop></linearGradient><linearGradient id="gradient_30igea3n6atisvjspj00os" x1="1.8369701987210297e-16" y1="0" x2="0" y2="1"><stop offset="0%" stop-color="#9900ff" stop-opacity="1"></stop><stop offset="100%" stop-color="#00fff6" stop-opacity="1"></stop></linearGradient></defs><path style="opacity: 1; fill-opacity: 1;" fill="url(#gradient_30igea3n6atisvjspj00os)" stroke="none" d="M-79.77,0L-79.77,-151.79Q-71.39,-154.26,-62.58,-155.22Q-53.77,-156.19,-41.21,-156.19Q-27.56,-156.19,-17.79,-153.13Q-8.01,-150.07,-1.73,-143.46Q4.56,-136.86,7.51,-126.38Q10.46,-115.91,10.46,-101.19Q10.46,-85.62,7.62,-74.71Q4.77,-63.81,-0.98,-56.99Q-6.72,-50.17,-15.05,-47.1Q-23.37,-44.04,-34.65,-44.04Q-35.94,-44.04,-38.25,-44.26Q-40.56,-44.47,-43.19,-44.79Q-45.83,-45.12,-48.56,-45.44Q-51.3,-45.76,-53.34,-46.19L-53.34,0L-79.77,0M-53.34,-61.55L-41.21,-61.55Q-35.08,-61.55,-30.36,-63.43Q-25.63,-65.31,-22.41,-69.82Q-19.18,-74.34,-17.57,-81.96Q-15.96,-89.59,-15.96,-101.19Q-15.96,-112.36,-17.57,-119.78Q-19.18,-127.19,-22.41,-131.59Q-25.63,-136,-30.36,-137.82Q-35.08,-139.65,-41.21,-139.65L-53.34,-139.65L-53.34,-61.55ZM22.5,-91.31L22.5,-107.85L34.63,-107.85L34.63,-116.55Q34.63,-127.94,37.37,-135.35Q40.11,-142.76,44.73,-146.85Q49.35,-150.93,55.53,-152.49Q61.7,-154.04,68.69,-154.04Q72.02,-154.04,75.72,-153.67Q79.43,-153.29,83.08,-152.65Q86.73,-152,89.9,-151.25Q93.07,-150.5,95.11,-149.64L95.11,-138.57L77.5,-138.57Q74.17,-138.57,71.21,-137.61Q68.26,-136.64,65.95,-134.22Q63.64,-131.81,62.3,-127.51Q60.95,-123.21,60.95,-116.55L60.95,-107.85L90.71,-107.85L90.71,-95.71Q85.66,-93.99,78.03,-92.65Q70.41,-91.31,62.13,-91.31L60.95,-91.31L60.95,0L34.63,0L34.63,-91.31L22.5,-91.31Z" opacity="1" fill-opacity="1" transform="matrix(1,0,0,1,160,237.0215)"></path></svg>